<svg width="15" height="15" viewBox="0 0 15 15" fill="none" xmlns="http://www.w3.org/2000/svg">
<style>
  .solid {
    transition: all 0.2s ease-out;
  }
  .small-dotted,
  .large-dotted {
    transition: opacity 0.2s ease-out;
  }
  :is(.small-dotted, .large-dotted) rect {
    width: 1px;
    height: 1px;
  }
  .arrow {
    transition: d 0.2s ease-out, transform 0.2s ease-out;
  }
  .arrow path {
    transition: d 0.2s ease-out;
  }
  .checked .large-dotted {
    opacity: 0;
  }
  .small-dotted {
    opacity: 0;
  }
  .checked .small-dotted {
    opacity: 1;
  }
  .solid {
    x: 7.5px;
    y: 1.5px;
    width: 6px;
    height: 6px;
  }
  .checked .solid {
    x: 1.5px;
    y: 1.5px;
    width: 12px;
    height: 12px
  }
  .checked .arrow {
    transform: translate(0);
  }   
  .arrow {
    transform: translate(0.5px, -0.5px);
  }
  .checked .arrow path:first-child {
    d: path("M5.5 12L5.5 9.5L3 9.5")
  }
  .arrow path:first-child {
    d: path("M5.5 12L3 12L3 9.5")
  }
</style>
<g>
    <g class="arrow" stroke="currentColor">
      <path d="M5.5 12L5.5 9.5L3 9.5" />
      <path d="M5.5 9.5L3 12" />
    </g>

    <rect class="solid"  stroke="currentColor"/>
    
    <g class="large-dotted" fill="currentColor">
        <rect x="5" y="1" />
        <rect x="3" y="1" />
        <rect x="1" y="3" />
        <rect x="1" y="5" />
        <rect x="1" y="1" />
        <rect x="1" y="7" />
        <rect x="1" y="9" />
        <rect x="1" y="11" />
        <rect x="1" y="13" />
        <rect x="5" y="13" />
        <rect x="3" y="13" />
        <rect x="7" y="13" />
        <rect x="9" y="13" />
        <rect x="11" y="13" />
        <rect x="13" y="13" />
        <rect x="13" y="11" />
        <rect x="13" y="9" />
    </g>
    <g class="small-dotted" fill="currentColor">
        <rect x="7" y="3" />
        <rect x="7" y="1" />
        <rect x="7" y="5" />
        <rect x="7" y="7" />
        <rect x="11" y="7" />
        <rect x="13" y="7" />
        <rect x="9" y="7" />
    </g>
</g>
</svg>
