<svg width="9" height="9" viewBox="0 0 9 9" fill="none" xmlns="http://www.w3.org/2000/svg">
<path d="M3.97905 1.41166L1.01296 6.60232C0.784394 7.00231 1.07321 7.5 1.53391 7.5H7.46609C7.92679 7.5 8.21561 7.00231 7.98704 6.60232L5.02095 1.41166C4.79061 1.00857 4.20939 1.00857 3.97905 1.41166Z" stroke="currentColor" stroke-linejoin="round"/>
<path d="M4.5 3.5V4.5" stroke="currentColor" stroke-linecap="round" stroke-linejoin="round"/>
<path d="M4 6.00001C4 5.72387 4.22386 5.50001 4.5 5.50001V5.50001C4.77614 5.50001 5 5.72387 5 6.00001V6.00001C5 6.27615 4.77614 6.50001 4.5 6.50001V6.50001C4.22386 6.50001 4 6.27615 4 6.00001V6.00001Z" fill="currentColor"/>
</svg>
