<svg width="15" height="15" viewBox="0 0 15 15" fill="none" xmlns="http://www.w3.org/2000/svg">
<g clip-path="url(#clip0_18_42)">
<path d="M13.5 1.5V1.5C13.5 2.88071 12.3807 4 11 4V4" stroke="currentColor" stroke-linecap="round" stroke-linejoin="round"/>
<path d="M7.5 7.5V7.5C7.5 5.567 9.067 4 11 4V4" stroke="currentColor" stroke-linecap="round" stroke-dasharray="0.01 1.8"/>
<circle cx="13.5" cy="1.5" r="0.5" fill="currentColor"/>
<path d="M13 7.5L12.5 7L9 7L9 8L12.5 8L13 7.5Z" fill="currentColor"/>
<path d="M-2.1856e-08 7.5L0.5 7L6 6.99999L6 7.99999L0.5 8L-2.1856e-08 7.5Z" fill="currentColor"/>
<path d="M7.5 15L7 14.5L7 9H8L8 14.5L7.5 15Z" fill="currentColor"/>
<path d="M7.5 2L7 2.5V4.5L8 3.5L8 2.5L7.5 2Z" fill="currentColor"/>
<g filter="url(#filter0_d_18_42)">
<path d="M6.99999 -7.28411e-06V0.7071L14.2929 8L15 8L15 7.29289L7.7071 -7.15767e-06L6.99999 -7.28411e-06Z" fill="currentColor"/>
</g>
<path d="M4.5 13L4.5 10.5L2 10.5" stroke="currentColor"/>
<path d="M1.5 13.5L4.5 10.5" stroke="currentColor"/>
</g>
<defs>
<filter id="filter0_d_18_42" x="2.99998" y="-4" width="16" height="16" filterUnits="userSpaceOnUse" color-interpolation-filters="sRGB">
<feFlood flood-opacity="0" result="BackgroundImageFix"/>
<feColorMatrix in="SourceAlpha" type="matrix" values="0 0 0 0 0 0 0 0 0 0 0 0 0 0 0 0 0 0 127 0" result="hardAlpha"/>
<feOffset/>
<feGaussianBlur stdDeviation="2"/>
<feComposite in2="hardAlpha" operator="out"/>
<feColorMatrix type="matrix" values="0 0 0 0 0 0 0 0 0 0 0 0 0 0 0 0 0 0 0.25 0"/>
<feBlend mode="normal" in2="BackgroundImageFix" result="effect1_dropShadow_18_42"/>
<feBlend mode="normal" in="SourceGraphic" in2="effect1_dropShadow_18_42" result="shape"/>
</filter>
<clipPath id="clip0_18_42">
<rect width="15" height="15" fill="white"/>
</clipPath>
</defs>
</svg>
