<svg width="15" height="15" viewBox="0 0 15 15" fill="none" xmlns="http://www.w3.org/2000/svg">
<path d="M13.5 1.5V2C13.5 5.03757 11.0376 7.5 8 7.5V7.5" stroke="currentColor" stroke-linecap="round" stroke-linejoin="round"/>
<path d="M1.5 13.5V13.5C1.5 10.1863 4.18629 7.5 7.5 7.5V7.5" class="active-stroke" stroke="currentColor" stroke-linecap="round" stroke-linejoin="round"/>
<path fill-rule="evenodd" clip-rule="evenodd" class="inactive-stroke" d="M6.1259 7.63655C6.21096 7.89927 6.06693 8.18119 5.80422 8.26625L5.79513 8.2692C5.53256 8.35471 5.25039 8.21118 5.16487 7.94862C5.07936 7.68605 5.22288 7.40387 5.48545 7.31836L5.4962 7.31486C5.75892 7.22981 6.04085 7.37383 6.1259 7.63655ZM4.38183 8.34858C4.54413 8.572 4.49458 8.88468 4.27117 9.04698L4.26345 9.0526C4.04032 9.21528 3.72755 9.16628 3.56487 8.94315C3.40218 8.72002 3.45118 8.40725 3.67431 8.24456L3.68343 8.23793C3.90684 8.07563 4.21953 8.12517 4.38183 8.34858ZM2.94315 9.56486C3.16629 9.72755 3.21529 10.0403 3.0526 10.2634L3.04698 10.2712C2.88468 10.4946 2.572 10.5441 2.34859 10.3818C2.12517 10.2195 2.07563 9.90684 2.23793 9.68342L2.24457 9.67431C2.40725 9.45117 2.72002 9.40217 2.94315 9.56486ZM1.94862 11.1649C2.21119 11.2504 2.35472 11.5326 2.2692 11.7951L2.26625 11.8042C2.1812 12.0669 1.89927 12.211 1.63655 12.1259C1.37384 12.0408 1.22981 11.7589 1.31487 11.4962L1.31836 11.4854C1.40388 11.2229 1.68605 11.0793 1.94862 11.1649ZM1.50043 12.9948C1.77657 12.995 2.00024 13.219 2 13.4952L2 13.5C2 13.7761 1.77614 14 1.5 14C1.22386 14 1 13.7761 1 13.5L1 13.4943C1.00024 13.2182 1.22429 12.9945 1.50043 12.9948Z" fill="currentColor"/>
<path d="M7 7H9L8 8L7 7Z" fill="currentColor"/>
<path d="M2 2L2 2.70711L12.2929 13L13 13L13 12.2929L2.70711 2L2 2Z" fill="currentColor"/>
</svg>
