<svg width="15" height="15" viewBox="0 0 15 15" fill="none" xmlns="http://www.w3.org/2000/svg">
<path fill-rule="evenodd" clip-rule="evenodd" d="M1.5 1C1.77614 1 2 1.22386 2 1.5L2 1.50481C2.00024 1.78095 1.77657 2.005 1.50043 2.00524C1.22429 2.00547 1.00024 1.78181 1 1.50566L1 1.5C1 1.22386 1.22386 1 1.5 1ZM1.63655 2.8741C1.89927 2.78904 2.1812 2.93307 2.26625 3.19578L2.2692 3.20487C2.35472 3.46744 2.21119 3.74961 1.94862 3.83513C1.68605 3.92065 1.40388 3.77712 1.31836 3.51455L1.31487 3.5038C1.22981 3.24108 1.37384 2.95916 1.63655 2.8741ZM2.34859 4.61818C2.572 4.45588 2.88468 4.50542 3.04698 4.72883L3.0526 4.73655C3.21529 4.95968 3.16629 5.27245 2.94315 5.43514C2.72002 5.59782 2.40725 5.54882 2.24457 5.32569L2.23793 5.31657C2.07563 5.09316 2.12517 4.78048 2.34859 4.61818ZM3.56487 6.05685C3.72755 5.83371 4.04032 5.78471 4.26345 5.9474L4.27117 5.95302C4.49458 6.11532 4.54413 6.428 4.38183 6.65141C4.21953 6.87483 3.90684 6.92437 3.68343 6.76207L3.67431 6.75543C3.45118 6.59275 3.40218 6.27998 3.56487 6.05685ZM5.16487 7.05138C5.25039 6.78881 5.53256 6.64528 5.79513 6.7308L5.80422 6.73375C6.06693 6.8188 6.21096 7.10073 6.1259 7.36345C6.04085 7.62616 5.75892 7.77019 5.4962 7.68513L5.48545 7.68164C5.22288 7.59612 5.07936 7.31395 5.16487 7.05138Z" fill="currentColor"  className="inactive-stroke"/>

<path d="M13.5 1.5V2C13.5 5.03757 11.0376 7.5 8 7.5V7.5" stroke="currentColor" stroke-linecap="round"/>
<path d="M1.5 1.5V2C1.5 5.03757 3.96243 7.5 7 7.5V7.5" stroke="currentColor" className="active-stroke" stroke-linecap="round"/>
<path d="M7.5 0L7 0.5V14.5L7.5 15L8 14.5V0.5L7.5 0Z" fill="currentColor"/>

</svg>
